<svg xmlns="http://www.w3.org/2000/svg" xmlns:xlink="http://www.w3.org/1999/xlink" viewBox="0 0 373.95 59.82"><defs><style>.cls-1{fill:#1e8efc;}.cls-2{fill:url(#linear-gradient);}.cls-3{fill:#b5bf50;}</style><linearGradient id="linear-gradient" x1="-55.2" y1="261.99" x2="-57.66" y2="261.99" gradientTransform="matrix(52.6, 0, 0, -20.58, 3207.17, 5422.31)" gradientUnits="userSpaceOnUse"><stop offset="0" stop-color="#b5bf50"/><stop offset="1" stop-color="#1e8efc"/></linearGradient></defs><g id="Layer_2" data-name="Layer 2"><g id="Layer_1-2" data-name="Layer 1"><path id="Path_984" data-name="Path 984" class="cls-1" d="M168.8,18.22a.86.86,0,0,1,.78.35.76.76,0,0,1,0,.82L153.65,58.63a1.69,1.69,0,0,1-1.8,1.17H149a1.91,1.91,0,0,1-2-1.09l-15.85-39.3a.91.91,0,0,1,.08-.83.86.86,0,0,1,.78-.35h4.86a1.46,1.46,0,0,1,.79.2,1.21,1.21,0,0,1,.47.66l12.32,30.83c.37,1,.79,1,1.26-.08L164,19.08a1.27,1.27,0,0,1,.43-.66,1.3,1.3,0,0,1,.75-.2Z"/><path id="Path_562" data-name="Path 562" class="cls-2" d="M174.57,2.29c0-1,.42-1.49,1.26-1.49h39.55c.78,0,1.17.44,1.17,1.33l-.08,7.07a1.44,1.44,0,0,1-1.22,1.64,1.48,1.48,0,0,1-.42,0h-25c-1,0-1.49.42-1.49,1.26V23.48c0,.89.39,1.33,1.17,1.33H206.1c.89,0,1.34.42,1.34,1.26V33.6a1.19,1.19,0,0,1-.28.79,1.24,1.24,0,0,1-1,.31H189.4c-.73,0-1.1.31-1.1.94V48c0,.68.29,1,.88,1H216c.94,0,1.41.39,1.41,1.18v7.45a1.4,1.4,0,0,1-.35,1,1.56,1.56,0,0,1-1.22.39H176.3c-1.15,0-1.73-.54-1.73-1.64Zm82.12,12.24a18.15,18.15,0,0,0-4.28-3.37,14.51,14.51,0,0,0-7.27-1.49,12.54,12.54,0,0,0-7.37,1.76,5.37,5.37,0,0,0-2.44,4.51,5.13,5.13,0,0,0,.48,2,5.34,5.34,0,0,0,1.88,2.12,13.73,13.73,0,0,0,4,1.8l12.4,3.53a18.86,18.86,0,0,1,10.51,6.32,16.23,16.23,0,0,1,3.3,10.08,16.26,16.26,0,0,1-2.82,9.54A18.09,18.09,0,0,1,257,57.61a32.23,32.23,0,0,1-12.48,2.2,39.69,39.69,0,0,1-10-1.22,27.6,27.6,0,0,1-8.24-3.53,18.9,18.9,0,0,1-5.61-5.37,2.27,2.27,0,0,1-.32-1.3,1.83,1.83,0,0,1,.79-1.06l6.05-4.16a2.61,2.61,0,0,1,1.53-.47,1.67,1.67,0,0,1,1.06.63,28.23,28.23,0,0,0,3.73,3.92,11.25,11.25,0,0,0,4.27,2.28,21.19,21.19,0,0,0,5.82.71,17.64,17.64,0,0,0,8.16-1.61,5.29,5.29,0,0,0,3-5,5.1,5.1,0,0,0-.63-2.47,5.89,5.89,0,0,0-2-2,15.75,15.75,0,0,0-3.88-1.69l-11.85-3.38a22.92,22.92,0,0,1-7.77-3.78,16.19,16.19,0,0,1-4.75-5.73,15.43,15.43,0,0,1-1.6-6.9,15.43,15.43,0,0,1,2.78-9A18.87,18.87,0,0,1,233,2.33,28,28,0,0,1,244.76,0a32.72,32.72,0,0,1,8.36,1,28.43,28.43,0,0,1,7,2.82,16.83,16.83,0,0,1,5.1,4.4,2.67,2.67,0,0,1,.47.9c.11.34,0,.69-.47,1.06l-6.59,4.87a1,1,0,0,1-.87.2A3.42,3.42,0,0,1,256.69,14.53Zm41.53,45.28a25.71,25.71,0,0,1-13.86-3.69,24.38,24.38,0,0,1-9.14-10.36A35.6,35.6,0,0,1,272,30.14a35.39,35.39,0,0,1,3.38-16A24.91,24.91,0,0,1,284.84,3.7,26.65,26.65,0,0,1,299,0a25.71,25.71,0,0,1,11.38,2.43,23.63,23.63,0,0,1,8.12,6.2,17.63,17.63,0,0,1,3.89,8,2.56,2.56,0,0,1,.11,1.57,1.27,1.27,0,0,1-1,.55l-10.36,1.57c-.47,0-.77-.1-.9-.31a3.62,3.62,0,0,1-.35-.95,12,12,0,0,0-1.92-4.7,10.76,10.76,0,0,0-9.3-4.71,10.91,10.91,0,0,0-6.63,2,12.56,12.56,0,0,0-4.24,6.44,37.45,37.45,0,0,0-1.45,11.53,38.12,38.12,0,0,0,1.53,12,12.5,12.5,0,0,0,4.39,6.47,11.78,11.78,0,0,0,6.87,2,12.18,12.18,0,0,0,4.43-.75,10.42,10.42,0,0,0,5.53-4.87,13.35,13.35,0,0,0,1.26-3.34l.16-2.28c.21-.77-.06-1.16-.79-1.16h-9.49A1.08,1.08,0,0,1,299,36.43V30.54c0-.73.42-1.1,1.26-1.1l20.95.08a2.47,2.47,0,0,1,1.72.51,1.75,1.75,0,0,1,.55,1.38V57.85a1.18,1.18,0,0,1-.31.88,1.16,1.16,0,0,1-.87.31h-2.51a2.1,2.1,0,0,1-1.1-.28,3,3,0,0,1-.94-1l-2.28-5.65a.28.28,0,0,0-.28-.23c-.13,0-.3.13-.5.39a27.07,27.07,0,0,1-3.53,3.49,17.47,17.47,0,0,1-5.26,2.9A22.54,22.54,0,0,1,298.22,59.81Z"/><path class="cls-1" d="M43.94,30.21a34.81,34.81,0,0,0-3.09-15.54A20.84,20.84,0,0,0,31,5.1a41.63,41.63,0,0,0-17.6-3.45H11c-1.15,0-2.41,0-3.77,0s-2.63,0-3.78,0H1.17a1.24,1.24,0,0,0-.89.27A1.15,1.15,0,0,0,0,2.67V58.54c0,.84.37,1.26,1.1,1.26H12.63a41.14,41.14,0,0,0,17.58-3.31,21.56,21.56,0,0,0,10.36-9.88A35.69,35.69,0,0,0,43.94,30.21ZM33.54,44.34a15.32,15.32,0,0,1-8,7.49,36.41,36.41,0,0,1-14.13,2.32h-3c-.63,0-.94-.29-.94-.87V8.4c0-.74.26-1.1.78-1.1h3.55A37.52,37.52,0,0,1,25.47,9.42a14.85,14.85,0,0,1,8,7.18,30.79,30.79,0,0,1,2.62,14A31.44,31.44,0,0,1,33.54,44.34Z"/><path class="cls-1" d="M85.11,26.48a16.87,16.87,0,0,0-6.58-7.31,19.12,19.12,0,0,0-10-2.51,19.38,19.38,0,0,0-10.08,2.66,19,19,0,0,0-7.16,7.57A24.41,24.41,0,0,0,48.7,38.63a22.89,22.89,0,0,0,2.59,11.06,19,19,0,0,0,7.06,7.46,19.73,19.73,0,0,0,10.28,2.66,24,24,0,0,0,7.06-.94,17,17,0,0,0,5.69-2.94,22.18,22.18,0,0,0,4.67-5.14c.37-.47.32-.84-.15-1.1L82.6,48a1.28,1.28,0,0,0-.58-.11,1.23,1.23,0,0,0-.52.35,14.47,14.47,0,0,1-5.28,4.91,14.82,14.82,0,0,1-7,1.61,13.09,13.09,0,0,1-6.94-1.89,14.09,14.09,0,0,1-4.94-5.06,13.72,13.72,0,0,1-1.84-7h0a1.64,1.64,0,0,1,.19-.81.6.6,0,0,1,.51-.35H86.28c.63,0,1-.18,1.07-.55a5.78,5.78,0,0,0,.11-1.1A25.76,25.76,0,0,0,85.11,26.48Zm-4.48,8.66a1.9,1.9,0,0,1-1.1.19l-23.86,0a15.72,15.72,0,0,1,1.49-6.75,12.75,12.75,0,0,1,4.39-5.23,12.33,12.33,0,0,1,7.15-2,11.51,11.51,0,0,1,6.55,1.81,11.94,11.94,0,0,1,4.16,4.75,14.07,14.07,0,0,1,1.45,6.31A1.26,1.26,0,0,1,80.63,35.14Z"/><path class="cls-1" d="M126.66,18.22a.86.86,0,0,1,.78.35.76.76,0,0,1,0,.82L111.51,58.63a1.69,1.69,0,0,1-1.8,1.17h-2.83a1.91,1.91,0,0,1-2-1.09L89.07,19.41a.91.91,0,0,1,.08-.83.86.86,0,0,1,.78-.35h4.86a1.42,1.42,0,0,1,.78.2,1.23,1.23,0,0,1,.48.66l12.32,30.83c.37,1,.79,1,1.26-.08l12.24-30.76a1.27,1.27,0,0,1,.43-.66,1.3,1.3,0,0,1,.75-.2Z"/><path class="cls-3" d="M354.54,35.42c17.13-10.61,19.31-31.28,19.4-32.16h0a1.94,1.94,0,0,0-2.48-2h0c-10.18,3-15.84,1.92-20.84,1S341.44.46,335.27,4.28A18.33,18.33,0,0,0,327,23.79c-6.9,4.3-8.29,11-8,14.26a1.9,1.9,0,0,0,.28.83,1.94,1.94,0,0,0,1.83.91c1.06-.1,1.58-1,1.75-2.1a12,12,0,0,1,5.39-10.11,19.4,19.4,0,0,0,1,1.9A18.35,18.35,0,0,0,354.54,35.42ZM337.31,7.57c4.89-3,7.95-2.44,12.59-1.57a41.48,41.48,0,0,0,19.7-.27c-8.68,26.94-21.79,5.59-39,16.27A14.46,14.46,0,0,1,337.31,7.57Z"/></g></g></svg>