<svg xmlns="http://www.w3.org/2000/svg" viewBox="0 0 234.38 105.6">
  <defs>
    <style>
      .devvio-logo-accent{fill:#dbdbdb}
      .devvio-logo-primary{fill:#ffffff}
    </style>
  </defs>
  <g data-name="Layer 2">
    <g data-name="Layer 1">
      <g data-name="6Qz1h3">
        <path class="devvio-logo-primary" d="M22.89 105.6V70.96a.86.86 0 0 1 .5-.86q14.75-8.49 29.49-17a.91.91 0 0 0 .53-.93v-34a1 1 0 0 1 .56-1Q68.66 8.75 83.35.25l.46-.25a.85.85 0 0 1 .07.51v69.41a.71.71 0 0 1-.41.72Q64.19 81.76 44.93 92.89l-21.42 12.37ZM.14 21.9l10.08-5.84L37.47.33c.19-.11.41-.37.59-.27s.07.43.07.65v43.21a.72.72 0 0 1-.73-.12c-3.41-2-6.8-3.94-10.21-5.9S20.42 34 17 32.06q-4.71-2.7-9.41-5.44c-2-1.17-4-2.34-6.07-3.48-.36-.21-.71-.43-1.06-.65S0 22.23.14 21.9Z"/>
        <path class="devvio-logo-accent" d="M.14 21.9a5 5 0 0 0 1.55 1c3.12 1.82 6.25 3.61 9.37 5.41l10.17 5.89 11.2 6.48c1.89 1.09 3.79 2.16 5.68 3.24A11 11 0 0 1 36.32 45Q19.12 55 1.89 64.91c-.51.3-1 .59-1.55.9-.24.19-.34.08-.34-.19V22.5c0-.2-.08-.44.14-.6Z"/>
        <path class="devvio-logo-primary" d="M125.09 65.13V51.49c0-.45.13-.56.56-.56h18.9c.43 0 .54.12.53.54v5.21c0 .42-.13.5-.52.5h-11.71c-.41 0-.54.11-.53.54v3.73c0 .39.12.48.49.48h9.91c.42 0 .51.12.51.52v5.11c0 .45-.09.6-.57.59h-9.82c-.4 0-.53.09-.52.51v4c0 .39.1.49.48.49h11.67c.68 0 .6-.07.6.63v5.16c0 .33-.08.45-.43.45h-19.13c-.43 0-.42-.2-.42-.5Zm81.83-7.83v21.42c0 .41-.08.56-.52.55h-6.27c-.34 0-.44-.09-.44-.44V61.69c0-.23 0-.4.25-.53l6.83-3.92c.1-.01.13 0 .15.06Zm-7.16-4.3v-7.78c0-.21 0-.43.31-.23l6.8 3.95a.6.6 0 0 1-.37.58c-2 1.16-4.07 2.34-6.12 3.49-.21.07-.38.21-.62-.01Z"/>
        <path class="devvio-logo-accent" d="M199.76 53c.15.06.26 0 .38-.11l6.24-3.59a1.38 1.38 0 0 0 .47-.36c.1.06.09.15.09.24v8.16a.14.14 0 0 1-.09 0c0-.23-.24-.26-.39-.35l-6.33-3.66c-.13-.13-.36-.15-.37-.33Z"/>
        <path class="devvio-logo-primary" d="M120 59.94a9.46 9.46 0 0 0-6.92-8.46 13.74 13.74 0 0 0-3.88-.48H98.74c-.42 0-.51.12-.51.52V78.8c0 .58 0 .58.61.58H109a16 16 0 0 0 2.84-.25 9.49 9.49 0 0 0 8.06-8.26 30.56 30.56 0 0 0 .16-4.78c.02-2.09.13-4.09-.06-6.15Zm-7.27 9.8a3.53 3.53 0 0 1-3.38 3.3c-1.19.08-2.39 0-3.59 0-.36 0-.29-.23-.29-.44V57.67c0-.42.12-.52.52-.51h3.08a3.65 3.65 0 0 1 3.2 1.84 4 4 0 0 1 .5 1.9 59.15 59.15 0 0 1-.05 8.84Zm83.59-18.8h-6.55a.55.55 0 0 0-.63.47q-2.25 7.38-4.53 14.75c-.05.16 0 .37-.23.49 0-.14-.1-.27-.14-.4-1.54-5-3.1-9.91-4.63-14.87a.52.52 0 0 0-.61-.43h-14a.63.63 0 0 0-.72.55c-1.09 3.6-2.2 7.19-3.3 10.79-.45 1.45-.9 2.9-1.34 4.35h-.11c-.35-1.12-.69-2.23-1-3.34l-3.72-11.91c-.07-.24-.11-.45-.46-.45h-6.78c-.36 0-.32.14-.24.38l.8 2.31q4.31 12.62 8.61 25.24a.57.57 0 0 0 .66.45h4.37a.55.55 0 0 0 .65-.45q4.4-12.87 8.82-25.71c.24-.69.48-1.38.75-2.18.1.26.16.4.2.54q4.67 13.62 9.31 27.24c.12.37.24.58.71.57h4.38a.53.53 0 0 0 .62-.44q4.71-13.74 9.43-27.49c.13-.4.07-.47-.32-.46Zm37.87 9.32a9.82 9.82 0 0 0-6.51-8.78 13.06 13.06 0 0 0-6.67-.63 10.23 10.23 0 0 0-8.76 8.28 46 46 0 0 0-.28 6c.05 1.63 0 3.25.12 4.88a10 10 0 0 0 6.53 8.78 13 13 0 0 0 6.4.67 10.16 10.16 0 0 0 9.1-8.92 57.64 57.64 0 0 0 .07-10.28Zm-7.12 7a19.17 19.17 0 0 1-.3 3.21 3.71 3.71 0 0 1-7.23 0 28.35 28.35 0 0 1-.35-5.37 34.13 34.13 0 0 1 .28-5 3.72 3.72 0 0 1 7.32-.16 37.66 37.66 0 0 1 .28 7.31Z"/>
      </g>
    </g>
  </g>
</svg>
