<svg xmlns="http://www.w3.org/2000/svg" xmlns:xlink="http://www.w3.org/1999/xlink" viewBox="0 0 400.77 99.53"><defs><style>.cls-1,.cls-3{isolation:isolate;}.cls-2,.cls-8{fill:#444;}.cls-3{opacity:0.75;}.cls-4,.cls-9{opacity:0.5;}.cls-4{fill:url(#linear-gradient);}.cls-5{fill:#1e8efc;}.cls-6{fill:#1969c9;}.cls-7,.cls-9{fill:#fff;}.cls-7,.cls-8{opacity:0.4;}</style><linearGradient id="linear-gradient" x1="292.78" y1="37.22" x2="337.84" y2="64.03" gradientUnits="userSpaceOnUse"><stop offset="0.23" stop-color="#1e8efc" stop-opacity="0.8"/><stop offset="0.26" stop-color="#1e8efc" stop-opacity="0.68"/><stop offset="0.31" stop-color="#1e8efc" stop-opacity="0.52"/><stop offset="0.37" stop-color="#1e8efc" stop-opacity="0.38"/><stop offset="0.43" stop-color="#1e8efc" stop-opacity="0.26"/><stop offset="0.49" stop-color="#1e8efc" stop-opacity="0.17"/><stop offset="0.57" stop-color="#1e8efc" stop-opacity="0.09"/><stop offset="0.66" stop-color="#1e8efc" stop-opacity="0.04"/><stop offset="0.77" stop-color="#1e8efc" stop-opacity="0.01"/><stop offset="1" stop-color="#1e8efc" stop-opacity="0"/></linearGradient></defs><g id="Layer_2" data-name="Layer 2"><g id="Layer_1-2" data-name="Layer 1"><g id="MARKETPLACE" class="cls-1"><g class="cls-1"><path class="cls-2" d="M59.49,78.3V58.9c0-.26.11-.39.32-.39h2.62a.6.6,0,0,1,.31.06.45.45,0,0,1,.15.24l6,15.6c.07.16.15.24.22.23s.14-.1.22-.26l6-15.51a.42.42,0,0,1,.41-.36h2.75q.3,0,.3.36V78.3a.37.37,0,0,1-.41.41h-1.8a.5.5,0,0,1-.31-.08.34.34,0,0,1-.1-.28V62.79c0-.09,0-.13,0-.13s-.06.05-.08.13l-6,15.56a.51.51,0,0,1-.52.36h-1.3a.51.51,0,0,1-.55-.33L61.86,63c0-.09-.07-.13-.1-.12s0,.05,0,.12v15.4a.43.43,0,0,1-.08.28.47.47,0,0,1-.3.08H59.87C59.61,78.71,59.49,78.57,59.49,78.3Z"/><path class="cls-2" d="M90.66,78.59a.48.48,0,0,1,0-.34l7-19.35a.73.73,0,0,1,.19-.29.54.54,0,0,1,.35-.1h2.13a.59.59,0,0,1,.62.41l7,19.33a.42.42,0,0,1,0,.31.26.26,0,0,1-.26.15h-1.93a.43.43,0,0,1-.44-.27l-1.88-5.28a.45.45,0,0,0-.11-.17.34.34,0,0,0-.21,0H95.2a.31.31,0,0,0-.33.22l-1.93,5.3a.27.27,0,0,1-.13.18.43.43,0,0,1-.28.07H90.9A.26.26,0,0,1,90.66,78.59Zm11.75-7.72c.22,0,.29-.12.22-.35l-3.27-9c-.07-.16-.14-.24-.2-.24s-.13.08-.18.24l-3.32,9c-.09.2,0,.3.16.3Z"/><path class="cls-2" d="M134.13,78.55a.34.34,0,0,1-.29.16h-2a.46.46,0,0,1-.44-.33l-3.51-8.57c-.09-.2-.31-.3-.65-.3h-4.6a.33.33,0,0,0-.26.08.32.32,0,0,0-.07.22v8.46c0,.29-.15.44-.46.44H120.1a.35.35,0,0,1-.3-.1.35.35,0,0,1-.08-.26V58.9c0-.26.11-.39.32-.39h7.6a8.25,8.25,0,0,1,5,1.32,4.56,4.56,0,0,1,1.78,3.91,5.47,5.47,0,0,1-.59,2.63,5.15,5.15,0,0,1-1.52,1.71,6.52,6.52,0,0,1-1.86.94c-.14,0-.18.11-.11.27l3.81,8.9A.38.38,0,0,1,134.13,78.55Zm-3.65-11.82A3.14,3.14,0,0,0,131.69,64a3.28,3.28,0,0,0-1.07-2.69,4.87,4.87,0,0,0-3.12-.87h-4.79c-.25,0-.38.1-.38.3v6.53c0,.24.08.35.25.35h4.29A6.18,6.18,0,0,0,130.48,66.73Z"/><path class="cls-2" d="M161.83,78.6c0,.07-.09.11-.2.11H159.4c-.26,0-.42-.08-.49-.25l-6-10c-.1-.16-.24-.15-.4,0L149.36,72a.72.72,0,0,0-.19.49v5.8c0,.27-.16.41-.47.41H147a.5.5,0,0,1-.31-.08.34.34,0,0,1-.1-.28V58.84q0-.33.3-.33h2q.3,0,.3.33v10c0,.11,0,.17.05.18s.1,0,.19-.13l8.93-10.12a.72.72,0,0,1,.21-.19.75.75,0,0,1,.33-.06h1.88c.16,0,.26,0,.3.13s0,.16-.08.26L154.64,66a.3.3,0,0,0,0,.36l7.15,12A.31.31,0,0,1,161.83,78.6Z"/><path class="cls-2" d="M173.85,58.51h12.22q.27,0,.27.3V60.2c0,.22-.12.33-.35.33h-9.5c-.24,0-.35.11-.35.32v6.37a.27.27,0,0,0,.3.3h7a.27.27,0,0,1,.3.3v1.44a.24.24,0,0,1-.05.18s-.12.07-.25.07h-7a.27.27,0,0,0-.3.3v6.61a.24.24,0,0,0,.27.27h10c.2,0,.3.1.3.28v1.44a.38.38,0,0,1-.07.22.3.3,0,0,1-.23.08H173.9a.34.34,0,0,1-.38-.38V58.9Q173.52,58.51,173.85,58.51Z"/><path class="cls-2" d="M197,58.81a.28.28,0,0,1,.07-.21.3.3,0,0,1,.26-.09H212a.33.33,0,0,1,.25.09.29.29,0,0,1,.08.21v1.42q0,.27-.33.27h-5.52q-.3,0-.3.27V78.35q0,.36-.33.36h-2q-.33,0-.33-.36V60.8q0-.3-.27-.3h-5.93q-.33,0-.33-.27Z"/><path class="cls-2" d="M237.7,67.71a5.49,5.49,0,0,1-2.53,1.94,10.37,10.37,0,0,1-3.73.62h-4.63c-.16,0-.24.08-.24.25V78.3a.37.37,0,0,1-.41.41h-1.85a.31.31,0,0,1-.36-.36V58.9q0-.39.33-.39h6.86a11.46,11.46,0,0,1,3.84.6A5.57,5.57,0,0,1,237.64,61a5.41,5.41,0,0,1,1,3.37A5.57,5.57,0,0,1,237.7,67.71Zm-2.35-5.63a3.35,3.35,0,0,0-1.72-1.21A8.18,8.18,0,0,0,231,60.5h-4.08c-.23,0-.35.11-.35.33V67.9c0,.26.08.38.24.38h4.38a5.7,5.7,0,0,0,3.46-1,3.48,3.48,0,0,0,1.31-3A3.77,3.77,0,0,0,235.35,62.08Z"/><path class="cls-2" d="M251,58.51h2q.33,0,.33.36V76.42a.24.24,0,0,0,.27.27h9.42c.22,0,.33.1.33.28v1.44a.29.29,0,0,1-.09.22.33.33,0,0,1-.24.08H251a.35.35,0,0,1-.3-.1.39.39,0,0,1-.08-.28V58.9C250.63,58.64,250.74,58.51,251,58.51Z"/><path class="cls-2" d="M273.09,78.59a.48.48,0,0,1,0-.34l7.05-19.35a.73.73,0,0,1,.19-.29.54.54,0,0,1,.35-.1h2.13a.59.59,0,0,1,.62.41l7,19.33a.42.42,0,0,1,0,.31.27.27,0,0,1-.26.15h-1.93a.43.43,0,0,1-.44-.27l-1.88-5.28a.45.45,0,0,0-.11-.17.34.34,0,0,0-.21,0h-7.92a.31.31,0,0,0-.33.22l-1.93,5.3a.27.27,0,0,1-.13.18.45.45,0,0,1-.28.07h-1.63A.26.26,0,0,1,273.09,78.59Zm11.75-7.72c.22,0,.29-.12.22-.35l-3.27-9c-.07-.16-.14-.24-.2-.24s-.13.08-.18.24l-3.32,9c-.09.2,0,.3.16.3Z"/><path class="cls-2" d="M311.25,58.69a8.36,8.36,0,0,1,2.27,1.21,7,7,0,0,1,1.66,1.77,5.25,5.25,0,0,1,.82,2.15.53.53,0,0,1,0,.33s-.09.08-.2.08l-2,.16a.17.17,0,0,1-.19,0,.48.48,0,0,1-.08-.22,5.06,5.06,0,0,0-1.65-2.82,4.71,4.71,0,0,0-3.14-1.07,5.08,5.08,0,0,0-4.36,2.09q-1.52,2.1-1.52,6.32a10.67,10.67,0,0,0,1.49,6.18,5.21,5.21,0,0,0,4.52,2.09,5.45,5.45,0,0,0,3.23-.92,6.39,6.39,0,0,0,2.08-3c.05-.11.16-.14.33-.11l1.6.38a.3.3,0,0,1,.14.11.41.41,0,0,1,0,.27,6.38,6.38,0,0,1-.67,1.55,7.47,7.47,0,0,1-1.1,1.43,7.59,7.59,0,0,1-1.52,1.2,7.85,7.85,0,0,1-1.92.83,8.27,8.27,0,0,1-2.28.3,8.45,8.45,0,0,1-4.64-1.25,7.94,7.94,0,0,1-3-3.59,13.83,13.83,0,0,1-1-5.56,13.68,13.68,0,0,1,1-5.53,7.86,7.86,0,0,1,2.94-3.57,8.16,8.16,0,0,1,4.55-1.24A7.77,7.77,0,0,1,311.25,58.69Z"/><path class="cls-2" d="M328.44,58.51h12.22q.27,0,.27.3V60.2c0,.22-.12.33-.35.33h-9.5c-.24,0-.36.11-.36.32v6.37a.27.27,0,0,0,.3.3h7.05a.27.27,0,0,1,.3.3v1.44a.3.3,0,0,1-.05.18s-.12.07-.25.07H331a.27.27,0,0,0-.3.3v6.61c0,.18.09.27.28.27h10a.26.26,0,0,1,.29.28v1.44a.38.38,0,0,1-.06.22.32.32,0,0,1-.23.08h-12.5a.34.34,0,0,1-.38-.38V58.9Q328.11,58.51,328.44,58.51Z"/></g></g><g id="Who_We_Are" data-name="Who We Are" class="cls-3"><g class="cls-1"><path class="cls-2" d="M150.17,92.36a2.51,2.51,0,0,1-1.2.91,4.79,4.79,0,0,1-1.77.3H145c-.08,0-.11,0-.11.12v3.69c0,.13-.07.19-.2.19h-.88a.17.17,0,0,1-.13,0,.21.21,0,0,1,0-.13V88.18q0-.18.15-.18h3.25a5.39,5.39,0,0,1,1.82.28,2.64,2.64,0,0,1,1.27.9,2.61,2.61,0,0,1,.46,1.6A2.7,2.7,0,0,1,150.17,92.36Zm-1.11-2.67a1.65,1.65,0,0,0-.82-.58,4.08,4.08,0,0,0-1.24-.17h-1.94c-.11,0-.16,0-.16.15v3.36c0,.12,0,.18.11.18h2.08a2.74,2.74,0,0,0,1.64-.45,1.67,1.67,0,0,0,.62-1.44A1.76,1.76,0,0,0,149.06,89.69Z"/><path class="cls-2" d="M152.78,97.25A3,3,0,0,1,151.64,96a4,4,0,0,1-.41-1.83,4,4,0,0,1,.42-1.88,3.18,3.18,0,0,1,5.7,0,4,4,0,0,1,.41,1.85,3.94,3.94,0,0,1-.41,1.82,3.08,3.08,0,0,1-2.86,1.7A3.26,3.26,0,0,1,152.78,97.25Zm2.89-.69a2.1,2.1,0,0,0,.73-.94,3.83,3.83,0,0,0,.25-1.47,3.74,3.74,0,0,0-.26-1.46,2.15,2.15,0,0,0-.73-1,1.93,1.93,0,0,0-1.15-.34,2,2,0,0,0-1.15.34,2.13,2.13,0,0,0-.76,1,3.74,3.74,0,0,0-.26,1.46,3.81,3.81,0,0,0,.26,1.46,2.13,2.13,0,0,0,.76,1,2,2,0,0,0,1.16.33A2,2,0,0,0,155.67,96.56Z"/><path class="cls-2" d="M168,90.79a.14.14,0,0,1,0,.14l-2,6.47c0,.06,0,.11-.08.13a.27.27,0,0,1-.16,0h-.62a.26.26,0,0,1-.28-.17l-1.53-4.82q0-.12-.09-.12s-.05,0-.07.12l-1.45,4.82a.22.22,0,0,1-.09.13.25.25,0,0,1-.16,0h-.66a.28.28,0,0,1-.27-.17l-2-6.47a.21.21,0,0,1,0-.14.15.15,0,0,1,.13-.06h.76a.28.28,0,0,1,.13,0,.31.31,0,0,1,.08.11l1.53,5c0,.09.06.13.09.13s.07,0,.11-.14l1.52-5a.36.36,0,0,1,.07-.1.2.2,0,0,1,.11,0h.61a.21.21,0,0,1,.12,0,.16.16,0,0,1,.07.11l1.59,5c0,.09.05.13.09.13s.06,0,.09-.14l1.48-5a.53.53,0,0,1,.09-.11.25.25,0,0,1,.13,0h.52A.11.11,0,0,1,168,90.79Z"/><path class="cls-2" d="M170.19,95.73a2.23,2.23,0,0,0,.81.83,2.13,2.13,0,0,0,1.15.31,2.34,2.34,0,0,0,1.14-.26,2.39,2.39,0,0,0,.87-.81l.08-.06.1,0,.54.28q.12.06,0,.18a3.93,3.93,0,0,1-.77.84,2.7,2.7,0,0,1-.94.48,3.78,3.78,0,0,1-1.16.16,3.27,3.27,0,0,1-1.69-.44A3.17,3.17,0,0,1,169.19,96a3.85,3.85,0,0,1-.42-1.82,4,4,0,0,1,.43-1.93A3.14,3.14,0,0,1,170.37,91,3.24,3.24,0,0,1,172,90.6a3.13,3.13,0,0,1,1.64.42,2.75,2.75,0,0,1,1.08,1.2,4.19,4.19,0,0,1,.39,1.89,1.1,1.1,0,0,1,0,.18c0,.06-.07.09-.17.09H170a.09.09,0,0,0-.08.06.32.32,0,0,0,0,.14A2.27,2.27,0,0,0,170.19,95.73Zm3.65-2.06a.36.36,0,0,0,.18,0,.22.22,0,0,0,0-.15,2.33,2.33,0,0,0-.24-1,2,2,0,0,0-.69-.78,1.92,1.92,0,0,0-1.07-.29,2,2,0,0,0-1.9,1.18,2.72,2.72,0,0,0-.25,1.11Z"/><path class="cls-2" d="M176.71,97.53a.19.19,0,0,1-.05-.13V90.9c0-.11.05-.17.14-.17h.75a.12.12,0,0,1,.14.14v.84a.1.1,0,0,0,0,.09s.06,0,.11,0a4,4,0,0,1,.66-.65,2.35,2.35,0,0,1,.67-.37,1.74,1.74,0,0,1,.67-.13c.3,0,.45.06.45.17v.77c0,.09,0,.13-.12.11l-.26,0h-.32a1.78,1.78,0,0,0-.61.12,2.57,2.57,0,0,0-.6.34,2.3,2.3,0,0,0-.45.49,1,1,0,0,0-.18.55v4.27c0,.13-.07.19-.2.19h-.71A.17.17,0,0,1,176.71,97.53Z"/><path class="cls-2" d="M182.46,95.73a2.25,2.25,0,0,0,.82.83,2.12,2.12,0,0,0,1.14.31,2.41,2.41,0,0,0,1.15-.26,2.45,2.45,0,0,0,.86-.81l.08-.06.1,0,.54.28q.12.06,0,.18a3.69,3.69,0,0,1-.77.84,2.75,2.75,0,0,1-.93.48,3.9,3.9,0,0,1-1.17.16,3.27,3.27,0,0,1-1.69-.44A3.17,3.17,0,0,1,181.46,96a3.85,3.85,0,0,1-.42-1.82,4,4,0,0,1,.43-1.93A3.14,3.14,0,0,1,182.64,91a3.24,3.24,0,0,1,1.66-.44,3.1,3.1,0,0,1,1.64.42,2.69,2.69,0,0,1,1.08,1.2,4.19,4.19,0,0,1,.39,1.89,1.1,1.1,0,0,1,0,.18c0,.06-.07.09-.17.09h-4.94a.1.1,0,0,0-.09.06.32.32,0,0,0,0,.14A2.27,2.27,0,0,0,182.46,95.73Zm3.65-2.06a.36.36,0,0,0,.18,0,.22.22,0,0,0,0-.15,2.33,2.33,0,0,0-.24-1,2,2,0,0,0-.69-.78,1.92,1.92,0,0,0-1.07-.29,2,2,0,0,0-1.9,1.18,2.71,2.71,0,0,0-.24,1.11Z"/><path class="cls-2" d="M193.66,97.53a.2.2,0,0,1,0-.14v-.54c0-.07,0-.11-.05-.12s-.07,0-.12.07l-.41.34a2.3,2.3,0,0,1-.66.39,2.53,2.53,0,0,1-1,.17,2.74,2.74,0,0,1-1.45-.39,2.69,2.69,0,0,1-1-1.15,4.33,4.33,0,0,1-.38-1.91,4.52,4.52,0,0,1,.38-1.91A3,3,0,0,1,190,91.06a2.81,2.81,0,0,1,1.57-.46,2.41,2.41,0,0,1,1.06.21,4,4,0,0,1,.75.48c.07.06.13.08.16.07s0-.07,0-.16v-3c0-.11,0-.16.14-.16h.79c.1,0,.14,0,.14.16v9.2a.25.25,0,0,1,0,.17s-.08,0-.16,0h-.66A.2.2,0,0,1,193.66,97.53Zm-.89-5.91a2,2,0,0,0-2.82,1,3.77,3.77,0,0,0-.28,1.55,3.62,3.62,0,0,0,.28,1.54,1.93,1.93,0,0,0,.76.87,2,2,0,0,0,1,.28,1.79,1.79,0,0,0,.93-.24,2,2,0,0,0,.65-.61,1.29,1.29,0,0,0,.24-.71V92.24A3.65,3.65,0,0,0,192.77,91.62Z"/></g><g class="cls-1"><path class="cls-2" d="M200.48,97.4a.23.23,0,0,1-.16-.05.25.25,0,0,1,0-.16V88q0-.18.15-.18h.8c.09,0,.13.06.13.18v3.16c0,.1,0,.15,0,.15s.09,0,.15-.07a2.53,2.53,0,0,1,.38-.31,2.85,2.85,0,0,1,.68-.35,3,3,0,0,1,1-.15,2.48,2.48,0,0,1,1.55.46,2.82,2.82,0,0,1,.91,1.26,5.05,5.05,0,0,1,.3,1.79,4.13,4.13,0,0,1-.77,2.62,2.64,2.64,0,0,1-2.17,1,2.53,2.53,0,0,1-1-.18,2.82,2.82,0,0,1-.69-.43,2.93,2.93,0,0,1-.4-.41c0-.05-.07-.06-.09-.06s-.05,0-.06.09l-.06.65a.22.22,0,0,1-.23.21Zm.88-2.31a1.4,1.4,0,0,0,.27.84,1.68,1.68,0,0,0,.69.6,1.86,1.86,0,0,0,.89.22,1.86,1.86,0,0,0,1.78-1.2,4,4,0,0,0,.27-1.59,3.56,3.56,0,0,0-.5-2,1.68,1.68,0,0,0-1.46-.71,2.31,2.31,0,0,0-1.11.27,3.09,3.09,0,0,0-.83.68Z"/><path class="cls-2" d="M207.5,99.5c-.13,0-.2-.06-.2-.14v-.51a.11.11,0,0,1,.07-.12.63.63,0,0,1,.29,0h.81a.85.85,0,0,0,.52-.19,1.6,1.6,0,0,0,.38-.47,1.63,1.63,0,0,0,.21-.58.83.83,0,0,0,0-.5l-2.46-6.17a.22.22,0,0,1,0-.16.16.16,0,0,1,.14-.06h.8a.28.28,0,0,1,.13,0,.24.24,0,0,1,.08.11l1.92,5c0,.07.07.11.11.11s.09,0,.12-.15l1.9-5a.35.35,0,0,1,.07-.11.2.2,0,0,1,.11,0h.6a.14.14,0,0,1,.13.06.1.1,0,0,1,0,.13L210.36,98a3.78,3.78,0,0,1-.4.76,1.79,1.79,0,0,1-.5.46,1.88,1.88,0,0,1-.61.23,3.57,3.57,0,0,1-.77.08A4.3,4.3,0,0,1,207.5,99.5Z"/><path class="cls-2" d="M218.14,87.82h1.63a6.73,6.73,0,0,1,2.9.56A3.38,3.38,0,0,1,224.28,90a5.74,5.74,0,0,1,.51,2.55,5.87,5.87,0,0,1-.55,2.7,3.57,3.57,0,0,1-1.7,1.62,6.65,6.65,0,0,1-2.89.55h-1.9q-.18,0-.18-.21V88a.17.17,0,0,1,0-.13.21.21,0,0,1,.15-.05Zm.67,1.12v7.39c0,.09.05.14.15.14h.49a6,6,0,0,0,2.32-.38,2.52,2.52,0,0,0,1.31-1.24,6.33,6.33,0,0,0,0-4.56,2.47,2.47,0,0,0-1.32-1.18,6.13,6.13,0,0,0-2.23-.35h-.58C218.85,88.76,218.81,88.82,218.81,88.94Z"/><path class="cls-2" d="M227.65,95.56a2.3,2.3,0,0,0,.81.83,2.13,2.13,0,0,0,1.15.31,2.46,2.46,0,0,0,1.14-.26,2.39,2.39,0,0,0,.87-.81.18.18,0,0,1,.08-.06.22.22,0,0,1,.1,0l.54.27q.12.06,0,.18a3.76,3.76,0,0,1-.77.85,2.7,2.7,0,0,1-.94.48,4.12,4.12,0,0,1-1.16.16,3.27,3.27,0,0,1-1.69-.44,3.2,3.2,0,0,1-1.16-1.23,3.79,3.79,0,0,1-.42-1.82,4,4,0,0,1,.43-1.93,3.18,3.18,0,0,1,1.17-1.24,3.42,3.42,0,0,1,3.3,0,2.87,2.87,0,0,1,1.08,1.2,4.26,4.26,0,0,1,.39,1.9,1.1,1.1,0,0,1,0,.18c0,.06-.07.09-.17.09h-4.95a.09.09,0,0,0-.08.06.28.28,0,0,0,0,.13A2.31,2.31,0,0,0,227.65,95.56Zm3.65-2.06a.36.36,0,0,0,.18,0,.22.22,0,0,0,0-.15,2.3,2.3,0,0,0-.24-1,2,2,0,0,0-.69-.78,1.85,1.85,0,0,0-1.07-.3,2,2,0,0,0-1.18.33,2.07,2.07,0,0,0-.72.86,2.65,2.65,0,0,0-.25,1.11Z"/><path class="cls-2" d="M239.61,90.62a.15.15,0,0,1,0,.13L237,97.2a.29.29,0,0,1-.3.2h-.46a.33.33,0,0,1-.33-.18l-2.6-6.47a.12.12,0,0,1,0-.13.15.15,0,0,1,.13-.06h.8a.28.28,0,0,1,.13,0,.24.24,0,0,1,.08.11l2,5.07c.06.16.13.16.21,0l2-5.06a.23.23,0,0,1,.07-.11.21.21,0,0,1,.12,0h.6A.15.15,0,0,1,239.61,90.62Z"/><path class="cls-2" d="M246.54,90.62a.15.15,0,0,1,0,.13l-2.62,6.45a.3.3,0,0,1-.3.2h-.47a.31.31,0,0,1-.32-.18l-2.6-6.47a.12.12,0,0,1,0-.13.14.14,0,0,1,.13-.06h.8a.28.28,0,0,1,.13,0,.18.18,0,0,1,.07.11l2,5.07c.06.16.13.16.21,0l2-5.06a.23.23,0,0,1,.07-.11.21.21,0,0,1,.12,0h.6A.15.15,0,0,1,246.54,90.62Z"/><path class="cls-2" d="M249,89.09a.21.21,0,0,1-.23.24h-.75a.18.18,0,0,1-.16-.06.31.31,0,0,1,0-.16V88q0-.21.18-.21h.82c.12,0,.18.07.18.2Zm0,8.09a.25.25,0,0,1-.05.17.27.27,0,0,1-.19.05h-.65a.28.28,0,0,1-.16,0,.26.26,0,0,1,0-.14V90.74c0-.12,0-.18.16-.18h.78c.1,0,.15,0,.15.17Z"/><path class="cls-2" d="M252.14,97.08A3.06,3.06,0,0,1,251,95.84a4,4,0,0,1-.4-1.82,4,4,0,0,1,.42-1.88,3.12,3.12,0,0,1,1.15-1.26,3.2,3.2,0,0,1,1.7-.45,3.08,3.08,0,0,1,1.71.46,3,3,0,0,1,1.14,1.26,4.09,4.09,0,0,1,.41,1.85,3.86,3.86,0,0,1-.42,1.83,3,3,0,0,1-1.14,1.24,3.21,3.21,0,0,1-1.71.46A3.26,3.26,0,0,1,252.14,97.08Zm2.88-.7a2,2,0,0,0,.73-.94,4.26,4.26,0,0,0,0-2.93,2.15,2.15,0,0,0-.74-1,2.15,2.15,0,0,0-2.29,0,2.19,2.19,0,0,0-.76,1,4.26,4.26,0,0,0,0,2.93,2.11,2.11,0,0,0,.76.94,2,2,0,0,0,1.16.33A1.94,1.94,0,0,0,255,96.38Z"/></g></g><polygon class="cls-4" points="316.8 64.18 338.85 51.45 316.8 38.59 294.52 51.45 316.57 64.18 316.57 64.31 316.69 64.24 316.8 64.31 316.8 64.18"/><path class="cls-5" d="M180.9,13.34a9.92,9.92,0,0,0-5-1A8.37,8.37,0,0,0,171,13.42,3.15,3.15,0,0,0,169.52,16a2.77,2.77,0,0,0,.34,1.26,3.85,3.85,0,0,0,1.21,1.27,7.31,7.31,0,0,0,2.5,1l9.1,2.47q5.28,1.41,7.69,4.61A12,12,0,0,1,192.78,34a11.92,11.92,0,0,1-2.11,7.05,13.41,13.41,0,0,1-6,4.63,23.76,23.76,0,0,1-9.27,1.63,30.11,30.11,0,0,1-7.5-.9,21.85,21.85,0,0,1-6.18-2.55,11.93,11.93,0,0,1-4-3.91,1.1,1.1,0,0,1,.34-1.74l5.05-3.48a1.71,1.71,0,0,1,1.21-.42,1.14,1.14,0,0,1,.76.48,15.83,15.83,0,0,0,2.58,2.72,8.36,8.36,0,0,0,3,1.52,14.3,14.3,0,0,0,4,.48,12.35,12.35,0,0,0,5.39-1,3.14,3.14,0,0,0,2-3,2.87,2.87,0,0,0-.42-1.49,4.09,4.09,0,0,0-1.29-1.26,8.4,8.4,0,0,0-2.39-.95l-8.53-2.25a16.36,16.36,0,0,1-5.68-2.7,12.57,12.57,0,0,1-3.62-4.21A11.47,11.47,0,0,1,160.85,11a14.05,14.05,0,0,1,5.81-4.69,21,21,0,0,1,8.87-1.74,26.15,26.15,0,0,1,6.21.73A20.13,20.13,0,0,1,187,7.33a12.12,12.12,0,0,1,3.68,3.15,4.52,4.52,0,0,1,.36.78c.1.26,0,.53-.36.79l-5.5,4a.72.72,0,0,1-.65.19,2.3,2.3,0,0,1-.87-.64A12.42,12.42,0,0,0,180.9,13.34Z"/><g class="cls-1"><path class="cls-5" d="M44.82,5.08h9.44c.63,0,1,.36,1,1.07V37.77c0,.49.21.73.62.73H73.24c.79,0,1.18.32,1.18,1v6.18a1.09,1.09,0,0,1-.31.78,1.24,1.24,0,0,1-1,.34H45.22a1.1,1.1,0,0,1-1.35-1.29V6.26C43.87,5.48,44.18,5.08,44.82,5.08Z"/><path class="cls-5" d="M76.3,46.23a1.78,1.78,0,0,1,0-1.32L90.15,6.26a2.14,2.14,0,0,1,.56-.9,1.6,1.6,0,0,1,1-.28h9.78a1.9,1.9,0,0,1,1.91,1.41L117.06,45a1.94,1.94,0,0,1,0,1.12.76.76,0,0,1-.79.62h-9.66a1.15,1.15,0,0,1-1.18-.9L103,38.56a3,3,0,0,0-.26-.42.69.69,0,0,0-.59-.2H89.36a.75.75,0,0,0-.78.62L85.94,46a1.21,1.21,0,0,1-.4.57,1.3,1.3,0,0,1-.84.22H77.12A.86.86,0,0,1,76.3,46.23ZM99.59,29.4c.52,0,.69-.35.5-1.06l-4-11.29c-.08-.19-.19-.28-.34-.28s-.26.09-.34.28l-4.1,11.29c-.26.71-.09,1.06.51,1.06Z"/><path class="cls-5" d="M142.19,13.34a9.9,9.9,0,0,0-5-1,8.37,8.37,0,0,0-4.83,1.09A3.14,3.14,0,0,0,130.82,16a2.76,2.76,0,0,0,.33,1.26,3.85,3.85,0,0,0,1.21,1.27,7.31,7.31,0,0,0,2.5,1L144,22q5.28,1.41,7.69,4.61A12,12,0,0,1,154.07,34,11.92,11.92,0,0,1,152,41.06a13.35,13.35,0,0,1-6,4.63,23.76,23.76,0,0,1-9.27,1.63,30,30,0,0,1-7.49-.9A21.61,21.61,0,0,1,123,43.87,11.88,11.88,0,0,1,119,40a1.1,1.1,0,0,1,.34-1.74l5-3.48a1.71,1.71,0,0,1,1.21-.42,1.14,1.14,0,0,1,.76.48A15.83,15.83,0,0,0,129,37.52,8.45,8.45,0,0,0,131.91,39a14.4,14.4,0,0,0,4,.48,12.32,12.32,0,0,0,5.39-1,3.15,3.15,0,0,0,2-3,2.8,2.8,0,0,0-.43-1.49,4.09,4.09,0,0,0-1.29-1.26,8.33,8.33,0,0,0-2.38-.95l-8.54-2.25a16.36,16.36,0,0,1-5.68-2.7,12.57,12.57,0,0,1-3.62-4.21A11.47,11.47,0,0,1,122.14,11,14.05,14.05,0,0,1,128,6.26a21,21,0,0,1,8.88-1.74,26,26,0,0,1,6.2.73,20.13,20.13,0,0,1,5.28,2.08A12,12,0,0,1,152,10.48a5.51,5.51,0,0,1,.37.78c.09.26,0,.53-.37.79l-5.5,4a.72.72,0,0,1-.65.19,2.38,2.38,0,0,1-.87-.64A12.42,12.42,0,0,0,142.19,13.34Z"/><path class="cls-5" d="M37,25.64H31.48l-.11,0-10.7-.07c-.71,0-1.07.28-1.07.84v4.83a1.19,1.19,0,0,0,.26.9,1.08,1.08,0,0,0,.75.22h6c.57,0,.84.34.65,1l-.25,1a8.82,8.82,0,0,1-.93,2A6.65,6.65,0,0,1,24.63,38a6.78,6.78,0,0,1-2,1.1,8.13,8.13,0,0,1-2.61.39,7.32,7.32,0,0,1-4.3-1.27A8.11,8.11,0,0,1,12.86,34a26.5,26.5,0,0,1-1-8.2,26.77,26.77,0,0,1,.93-7.86,8.27,8.27,0,0,1,2.67-4.24,6.66,6.66,0,0,1,4.15-1.32,7,7,0,0,1,3.65.9,6.93,6.93,0,0,1,2.42,2.33,8.38,8.38,0,0,1,1.18,3.12,2.18,2.18,0,0,0,.28.75c.11.17.37.26.79.26l8.53-1.29a1,1,0,0,0,.79-.43,2.48,2.48,0,0,0-.06-1.37,13.3,13.3,0,0,0-2.89-5.76,17.25,17.25,0,0,0-5.93-4.55,19.31,19.31,0,0,0-8.53-1.77A19.86,19.86,0,0,0,9.49,7.19a18.35,18.35,0,0,0-7,7.5A24.45,24.45,0,0,0,0,26.09,24.89,24.89,0,0,0,2.36,37.18a17.58,17.58,0,0,0,6.71,7.47,19,19,0,0,0,10.14,2.67,16.27,16.27,0,0,0,5.53-.81,12.23,12.23,0,0,0,3.65-2,27.71,27.71,0,0,0,2.13-1.93v3.21a1,1,0,0,0,1,1H37a.85.85,0,0,0,.67-.25,1,1,0,0,0,.22-.65V26.61A1,1,0,0,0,37,25.64Z"/></g><path class="cls-6" d="M198,46.42a1.09,1.09,0,0,1-.31-.78V6.43a1.36,1.36,0,0,1,.34-1,1.17,1.17,0,0,1,.9-.37H215q8.43,0,12.89,2.78A9,9,0,0,1,232.34,16a8.31,8.31,0,0,1-1.6,5.14,14.79,14.79,0,0,1-5.76,4,.18.18,0,0,0-.11.19.19.19,0,0,0,.11.2c3,1,5.19,2.35,6.46,3.9a9.26,9.26,0,0,1,1.91,6q0,5.73-4.38,8.51t-13.2,2.78h-17A1.05,1.05,0,0,1,198,46.42Zm17.83-24.6a6.58,6.58,0,0,0,2.08-.31,5.31,5.31,0,0,0,1.69-.87,3.81,3.81,0,0,0,1.12-1.37,4.48,4.48,0,0,0,.39-1.94,4.08,4.08,0,0,0-1.62-3.43,6.64,6.64,0,0,0-4.11-1.23h-5.16c-.79,0-1.18.33-1.18,1v7c0,.79.28,1.18.84,1.18Zm-.33,17.36A6.43,6.43,0,0,0,220,37.75a4.59,4.59,0,0,0,1.51-3.46,4.38,4.38,0,0,0-.73-2.53,4.62,4.62,0,0,0-2-1.63,7.47,7.47,0,0,0-3-.56h-5.61c-.79,0-1.18.38-1.18,1.13v7.35c0,.75.28,1.13.84,1.13Z"/><path class="cls-6" d="M239.7,5.08h9.43c.64,0,1,.36,1,1.07V37.77c0,.49.2.73.61.73h17.42c.78,0,1.18.32,1.18,1v6.18a1.13,1.13,0,0,1-.31.78,1.28,1.28,0,0,1-1,.34H240.09a1.1,1.1,0,0,1-1.35-1.29V6.26C238.74,5.48,239.06,5.08,239.7,5.08Z"/><path class="cls-6" d="M347,5.48a17.61,17.61,0,0,1,5.22,2.66,15.48,15.48,0,0,1,3.74,4,14,14,0,0,1,2,5,2.11,2.11,0,0,1,.09,1.38,1,1,0,0,1-.76.36l-8.76.62c-.38,0-.61-.09-.71-.25a3.53,3.53,0,0,1-.25-.76,9.21,9.21,0,0,0-2-4.44,5.71,5.71,0,0,0-4.55-1.74,6.72,6.72,0,0,0-5.79,3.06Q333,18.45,333,25.64T335,36a6.6,6.6,0,0,0,5.93,3.09,9.24,9.24,0,0,0,5.31-1.55A11,11,0,0,0,350,32.21q.29-.62,1.41-.39l6.34,1.24a1.28,1.28,0,0,1,.54.36c.2.21.25.65.14,1.32a12.79,12.79,0,0,1-1,2.58,19.08,19.08,0,0,1-2.11,3.32,16.78,16.78,0,0,1-3.43,3.26A18.16,18.16,0,0,1,347,46.37a20.1,20.1,0,0,1-6.41,1,18.8,18.8,0,0,1-10.33-2.78,18.19,18.19,0,0,1-6.74-7.72,26,26,0,0,1-2.36-11.35,24.31,24.31,0,0,1,2.36-11.09,17.12,17.12,0,0,1,6.77-7.27,20,20,0,0,1,10.36-2.59A20.3,20.3,0,0,1,347,5.48Z"/><path class="cls-6" d="M400.73,46.28q-.14.48-.87.48h-9.77a1.78,1.78,0,0,1-1.8-1l-7.92-16.57c-.3-.45-.69-.37-1.18.22L374.75,35a1.82,1.82,0,0,0-.33,1.18V45.3c0,1-.57,1.46-1.69,1.46h-8.31a1.1,1.1,0,0,1-1.35-1.29V6.26c0-.78.32-1.18.95-1.18h9.44c.64,0,1,.36,1,1.07V21.6c0,.41.07.61.22.61s.34-.13.56-.39L387.05,6.15a2.84,2.84,0,0,1,.82-.81,2.76,2.76,0,0,1,1.37-.26h7.64a1.38,1.38,0,0,1,1.18.45c.23.3.17.64-.17,1L388,18.45a1.6,1.6,0,0,0-.11,1.63l12.69,25.11A1.42,1.42,0,0,1,400.73,46.28Z"/><polygon class="cls-5" points="294.52 0 272.25 12.86 272.25 38.59 294.53 51.45 316.8 38.59 316.8 12.86 294.52 0"/><polygon class="cls-6" points="294.52 0 294.53 51.45 316.8 38.59 316.8 12.86 294.52 0"/><polygon class="cls-7" points="294.52 0 272.25 12.86 294.52 25.72 316.8 12.86 294.52 0"/><polygon class="cls-8" points="294.52 25.72 272.25 38.59 294.52 51.45 316.8 38.59 294.52 25.72"/><circle class="cls-9" cx="294.53" cy="25.72" r="9.16"/></g></g></svg>